<?xml version="1.0" encoding="UTF-8" standalone="no"?>
<!-- Created with Inkscape (http://www.inkscape.org/) -->

<svg
   xmlns:dc="http://purl.org/dc/elements/1.1/"
   xmlns:cc="http://creativecommons.org/ns#"
   xmlns:rdf="http://www.w3.org/1999/02/22-rdf-syntax-ns#"
   xmlns:svg="http://www.w3.org/2000/svg"
   xmlns="http://www.w3.org/2000/svg"
   xmlns:xlink="http://www.w3.org/1999/xlink"
   xmlns:sodipodi="http://sodipodi.sourceforge.net/DTD/sodipodi-0.dtd"
   xmlns:inkscape="http://www.inkscape.org/namespaces/inkscape"
   width="48"
   height="48"
   viewBox="0 0 12.7 12.7"
   version="1.1"
   id="svg1667"
   inkscape:version="0.92.2 (5c3e80d, 2017-08-06)"
   sodipodi:docname="calendar.svg">
  <defs
     id="defs1661">
    <linearGradient
       inkscape:collect="always"
       id="linearGradient2324">
      <stop
         style="stop-color:#022b3a;stop-opacity:1;"
         offset="0"
         id="stop2320" />
      <stop
         style="stop-color:#022b3a;stop-opacity:0;"
         offset="1"
         id="stop2322" />
    </linearGradient>
    <linearGradient
       inkscape:collect="always"
       xlink:href="#linearGradient2324"
       id="linearGradient2326"
       x1="833.38263"
       y1="1180.0635"
       x2="827.88287"
       y2="1211.6873"
       gradientUnits="userSpaceOnUse" />
  </defs>
  <sodipodi:namedview
     id="base"
     pagecolor="#ffffff"
     bordercolor="#666666"
     borderopacity="1.0"
     inkscape:pageopacity="0.0"
     inkscape:pageshadow="2"
     inkscape:zoom="7.9195959"
     inkscape:cx="56.239442"
     inkscape:cy="42.142596"
     inkscape:document-units="mm"
     inkscape:current-layer="layer1"
     showgrid="false"
     units="px"
     inkscape:window-width="1920"
     inkscape:window-height="1017"
     inkscape:window-x="-8"
     inkscape:window-y="-8"
     inkscape:window-maximized="1" />
  <metadata
     id="metadata1664">
    <rdf:RDF>
      <cc:Work
         rdf:about="">
        <dc:format>image/svg+xml</dc:format>
        <dc:type
           rdf:resource="http://purl.org/dc/dcmitype/StillImage" />
        <dc:title></dc:title>
      </cc:Work>
    </rdf:RDF>
  </metadata>
  <g
     inkscape:label="Layer 1"
     inkscape:groupmode="layer"
     id="layer1"
     transform="translate(0,-284.3)">
    <g
       id="g1534"
       style="fill:url(#linearGradient2326);fill-opacity:1;stroke:none;stroke-opacity:1"
       transform="matrix(0.0242981,0,0,0.0242981,0.1296864,284.42969)">
      <g
         id="g1468"
         style="fill:url(#linearGradient2326);fill-opacity:1.0;stroke:none;stroke-opacity:1">
        <g
           id="g1466"
           style="fill:url(#linearGradient2326);fill-opacity:1.0;stroke:none;stroke-opacity:1">
          <path
             id="path1464"
             d="M 467,60 H 452 V 45 C 452,20.187 431.813,0 407,0 382.187,0 362,20.187 362,45 V 60 H 302 V 45 C 302,20.187 281.813,0 257,0 232.187,0 212,20.187 212,45 V 60 H 150 V 45 C 150,20.187 129.813,0 105,0 80.187,0 60,20.187 60,45 V 60 H 45 C 20.187,60 0,80.187 0,105 c 0,2.176 0,356.248 0,362 0,24.813 20.187,45 45,45 h 422 c 24.813,0 45,-20.187 45,-45 0,-2.763 0,-357.126 0,-362 0,-24.813 -20.187,-45 -45,-45 z M 392,45 c 0,-8.271 6.729,-15 15,-15 8.271,0 15,6.729 15,15 v 60 c 0,8.271 -6.729,15 -15,15 -8.271,0 -15,-6.729 -15,-15 z m -150,0 c 0,-8.271 6.729,-15 15,-15 8.271,0 15,6.729 15,15 v 60 c 0,8.271 -6.729,15 -15,15 -8.271,0 -15,-6.729 -15,-15 z M 90,45 c 0,-8.271 6.729,-15 15,-15 8.271,0 15,6.729 15,15 v 60 c 0,8.271 -6.729,15 -15,15 -8.271,0 -15,-6.729 -15,-15 z m 392,422 c 0,8.271 -6.729,15 -15,15 H 45 c -8.271,0 -15,-6.729 -15,-15 V 212 h 452 z m 0,-285 H 30 v -77 c 0,-8.271 6.729,-15 15,-15 h 15 v 15 c 0,24.813 20.187,45 45,45 24.813,0 45,-20.187 45,-45 V 90 h 62 v 15 c 0,24.813 20.187,45 45,45 24.813,0 45,-20.187 45,-45 V 90 h 60 v 15 c 0,24.813 20.187,45 45,45 24.813,0 45,-20.187 45,-45 V 90 h 15 c 8.271,0 15,6.729 15,15 z"
             inkscape:connector-curvature="0"
             style="fill:url(#linearGradient2326);fill-opacity:1.0;stroke:none;stroke-opacity:1" />
        </g>
      </g>
      <g
         id="g1474"
         style="fill:url(#linearGradient2326);fill-opacity:1.0;stroke:none;stroke-opacity:1">
        <g
           id="g1472"
           style="fill:url(#linearGradient2326);fill-opacity:1.0;stroke:none;stroke-opacity:1">
          <path
             id="path1470"
             d="M 437,242 H 75 c -8.284,0 -15,6.716 -15,15 v 180 c 0,8.284 6.716,15 15,15 h 362 c 8.284,0 15,-6.716 15,-15 V 257 c 0,-8.284 -6.716,-15 -15,-15 z M 150,422 H 90 v -60 h 60 z m 0,-90 H 90 v -60 h 60 z m 92,90 h -62 v -60 h 62 z m 0,-90 h -62 v -60 h 62 z m 90,90 h -60 v -60 h 60 z m 0,-90 h -60 v -60 h 60 z m 90,90 h -60 v -60 h 60 z m 0,-90 h -60 v -60 h 60 z"
             inkscape:connector-curvature="0"
             style="fill:url(#linearGradient2326);fill-opacity:1.0;stroke:none;stroke-opacity:1" />
        </g>
      </g>
      <g
         id="g1476"
         style="fill:url(#linearGradient2326);fill-opacity:1.0;stroke:none;stroke-opacity:1" />
      <g
         id="g1478"
         style="fill:url(#linearGradient2326);fill-opacity:1.0;stroke:none;stroke-opacity:1" />
      <g
         id="g1480"
         style="fill:url(#linearGradient2326);fill-opacity:1.0;stroke:none;stroke-opacity:1" />
      <g
         id="g1482"
         style="fill:url(#linearGradient2326);fill-opacity:1.0;stroke:none;stroke-opacity:1" />
      <g
         id="g1484"
         style="fill:url(#linearGradient2326);fill-opacity:1.0;stroke:none;stroke-opacity:1" />
      <g
         id="g1486"
         style="fill:url(#linearGradient2326);fill-opacity:1.0;stroke:none;stroke-opacity:1" />
      <g
         id="g1488"
         style="fill:url(#linearGradient2326);fill-opacity:1.0;stroke:none;stroke-opacity:1" />
      <g
         id="g1490"
         style="fill:url(#linearGradient2326);fill-opacity:1.0;stroke:none;stroke-opacity:1" />
      <g
         id="g1492"
         style="fill:url(#linearGradient2326);fill-opacity:1.0;stroke:none;stroke-opacity:1" />
      <g
         id="g1494"
         style="fill:url(#linearGradient2326);fill-opacity:1.0;stroke:none;stroke-opacity:1" />
      <g
         id="g1496"
         style="fill:url(#linearGradient2326);fill-opacity:1.0;stroke:none;stroke-opacity:1" />
      <g
         id="g1498"
         style="fill:url(#linearGradient2326);fill-opacity:1.0;stroke:none;stroke-opacity:1" />
      <g
         id="g1500"
         style="fill:url(#linearGradient2326);fill-opacity:1.0;stroke:none;stroke-opacity:1" />
      <g
         id="g1502"
         style="fill:url(#linearGradient2326);fill-opacity:1.0;stroke:none;stroke-opacity:1" />
      <g
         id="g1504"
         style="fill:url(#linearGradient2326);fill-opacity:1.0;stroke:none;stroke-opacity:1" />
    </g>
  </g>
</svg>
