<?xml version="1.0" encoding="UTF-8" standalone="no"?>
<!-- Created with Inkscape (http://www.inkscape.org/) -->

<svg
   xmlns:dc="http://purl.org/dc/elements/1.1/"
   xmlns:cc="http://creativecommons.org/ns#"
   xmlns:rdf="http://www.w3.org/1999/02/22-rdf-syntax-ns#"
   xmlns:svg="http://www.w3.org/2000/svg"
   xmlns="http://www.w3.org/2000/svg"
   xmlns:sodipodi="http://sodipodi.sourceforge.net/DTD/sodipodi-0.dtd"
   xmlns:inkscape="http://www.inkscape.org/namespaces/inkscape"
   width="48"
   height="48"
   viewBox="0 0 12.7 12.7"
   version="1.1"
   id="svg3880"
   inkscape:version="0.92.2 (5c3e80d, 2017-08-06)"
   sodipodi:docname="orbit.svg">
  <defs
     id="defs3874" />
  <sodipodi:namedview
     id="base"
     pagecolor="#ffffff"
     bordercolor="#666666"
     borderopacity="1.0"
     inkscape:pageopacity="0.0"
     inkscape:pageshadow="2"
     inkscape:zoom="11.313709"
     inkscape:cx="29.256324"
     inkscape:cy="31.167195"
     inkscape:document-units="mm"
     inkscape:current-layer="layer1"
     showgrid="false"
     units="px"
     inkscape:window-width="1920"
     inkscape:window-height="1017"
     inkscape:window-x="-8"
     inkscape:window-y="-8"
     inkscape:window-maximized="1" />
  <metadata
     id="metadata3877">
    <rdf:RDF>
      <cc:Work
         rdf:about="">
        <dc:format>image/svg+xml</dc:format>
        <dc:type
           rdf:resource="http://purl.org/dc/dcmitype/StillImage" />
        <dc:title></dc:title>
      </cc:Work>
    </rdf:RDF>
  </metadata>
  <g
     inkscape:label="Layer 1"
     inkscape:groupmode="layer"
     id="layer1"
     transform="translate(0,-284.3)">
    <path
       style="opacity:1;fill:none;fill-opacity:1;fill-rule:evenodd;stroke:#ce250b;stroke-width:0.05291667;stroke-linecap:round;stroke-linejoin:miter;stroke-miterlimit:4;stroke-dasharray:none;stroke-dashoffset:0;stroke-opacity:1"
       id="path4923"
       sodipodi:type="arc"
       sodipodi:cx="6.3500004"
       sodipodi:cy="290.64999"
       sodipodi:rx="1.8274009"
       sodipodi:ry="1.8274009"
       sodipodi:start="4.429862"
       sodipodi:end="4.4252527"
       d="m 5.8405515,288.89504 a 1.8274009,1.8274009 0 0 1 2.2638125,1.24348 1.8274009,1.8274009 0 0 1 -1.2408715,2.26525 1.8274009,1.8274009 0 0 1 -2.2666723,-1.23826 1.8274009,1.8274009 0 0 1 1.2356476,-2.2681"
       sodipodi:open="true" />
    <path
       style="opacity:1;fill:#ce250b;fill-opacity:1;fill-rule:evenodd;stroke:none;stroke-width:0.08352304;stroke-linecap:round;stroke-linejoin:miter;stroke-miterlimit:4;stroke-dasharray:none;stroke-dashoffset:0;stroke-opacity:1"
       id="path4925"
       sodipodi:type="arc"
       sodipodi:cx="1.7390002"
       sodipodi:cy="286.379"
       sodipodi:rx="0.48872355"
       sodipodi:ry="0.48872355"
       sodipodi:start="0.76962737"
       sodipodi:end="0.76962039"
       d="m 2.0899868,286.71908 a 0.48872355,0.48872355 0 0 1 -0.6910729,0.0109 0.48872355,0.48872355 0 0 1 -0.010901,-0.69107 0.48872355,0.48872355 0 0 1 0.6910729,-0.0109 0.48872355,0.48872355 0 0 1 0.010904,0.69107 L 1.7390002,286.379 Z" />
    <path
       style="opacity:1;fill:none;fill-opacity:1;fill-rule:evenodd;stroke:#ce250b;stroke-width:0.05291667;stroke-linecap:round;stroke-linejoin:miter;stroke-miterlimit:4;stroke-dasharray:0.635, 0.63500000000000001;stroke-dashoffset:0;stroke-opacity:1"
       id="path4923-1"
       sodipodi:type="arc"
       sodipodi:cx="6.3500004"
       sodipodi:cy="290.64999"
       sodipodi:rx="3.0329366"
       sodipodi:ry="3.0329366"
       sodipodi:start="4.429862"
       sodipodi:end="4.4252527"
       d="m 5.5044682,287.7373 a 3.0329366,3.0329366 0 0 1 3.7572488,2.06381 3.0329366,3.0329366 0 0 1 -2.059474,3.75962 3.0329366,3.0329366 0 0 1 -3.7619951,-2.05514 3.0329366,3.0329366 0 0 1 2.0508039,-3.76436"
       sodipodi:open="true" />
    <path
       style="opacity:1;fill:none;fill-opacity:1;fill-rule:evenodd;stroke:#ce250b;stroke-width:0.05291667;stroke-linecap:round;stroke-linejoin:miter;stroke-miterlimit:4;stroke-dasharray:0.05291667, 0.10583333000000000;stroke-dashoffset:0;stroke-opacity:1"
       id="path4923-10"
       sodipodi:type="arc"
       sodipodi:cx="6.3500028"
       sodipodi:cy="290.64999"
       sodipodi:rx="4.9677463"
       sodipodi:ry="4.9677463"
       sodipodi:start="4.429862"
       sodipodi:end="4.4252527"
       d="m 4.9650779,285.8792 a 4.9677463,4.9677463 0 0 1 6.1541211,3.38037 4.9677463,4.9677463 0 0 1 -3.3732801,6.15801 4.9677463,4.9677463 0 0 1 -6.1618951,-3.36618 4.9677463,4.9677463 0 0 1 3.3590789,-6.16577"
       sodipodi:open="true" />
    <path
       style="opacity:1;fill:none;fill-opacity:1;fill-rule:evenodd;stroke:#ce250b;stroke-width:0.05291667;stroke-linecap:round;stroke-linejoin:miter;stroke-miterlimit:4;stroke-dasharray:0, 0.05291667000000000, 0.10583333000000000, 0.15875000000000000, 0.21166667000000000, 0.26458333000000001, 0.31750000000000000, 0.37041667000000000, 0.42333333000000001, 0.47625000000000001, 0.52916666999999995, 0.58208333000000001, 0.63500000000000001, 0.68791667000000001, 0.74083332999999985;stroke-dashoffset:0.06177188;stroke-opacity:1"
       id="path4923-0"
       sodipodi:type="arc"
       sodipodi:cx="6.3500028"
       sodipodi:cy="290.64999"
       sodipodi:rx="6.2030468"
       sodipodi:ry="6.2030468"
       sodipodi:start="4.429862"
       sodipodi:end="4.4252527"
       d="m 4.6206967,284.69287 a 6.2030468,6.2030468 0 0 1 7.6844303,4.22095 6.2030468,6.2030468 0 0 1 -4.2120937,7.68929 6.2030468,6.2030468 0 0 1 -7.69413774,-4.20323 6.2030468,6.2030468 0 0 1 4.19436144,-7.69897"
       sodipodi:open="true" />
    <path
       style="opacity:1;fill:#ce250b;fill-opacity:1;fill-rule:evenodd;stroke:none;stroke-width:0.05270928;stroke-linecap:round;stroke-linejoin:miter;stroke-miterlimit:4;stroke-dasharray:none;stroke-dashoffset:0;stroke-opacity:1"
       id="path4925-6"
       sodipodi:type="arc"
       sodipodi:cx="3.2987485"
       sodipodi:cy="291.11026"
       sodipodi:rx="0.30842108"
       sodipodi:ry="0.30842108"
       sodipodi:start="0.76962737"
       sodipodi:end="0.76962039"
       d="m 3.5202473,291.32488 a 0.30842108,0.30842108 0 0 1 -0.4361187,0.007 0.30842108,0.30842108 0 0 1 -0.00688,-0.43612 0.30842108,0.30842108 0 0 1 0.4361186,-0.007 0.30842108,0.30842108 0 0 1 0.00688,0.43612 l -0.2215003,-0.21462 z" />
    <path
       style="opacity:1;fill:#ce250b;fill-opacity:1;fill-rule:evenodd;stroke:none;stroke-width:0.05912881;stroke-linecap:round;stroke-linejoin:miter;stroke-miterlimit:4;stroke-dasharray:none;stroke-dashoffset:0;stroke-opacity:1"
       id="path4925-5"
       sodipodi:type="arc"
       sodipodi:cx="7.3780904"
       sodipodi:cy="285.7988"
       sodipodi:rx="0.3459841"
       sodipodi:ry="0.3459841"
       sodipodi:start="0.76962737"
       sodipodi:end="0.76962039"
       d="m 7.6265658,286.03956 a 0.3459841,0.3459841 0 0 1 -0.4892341,0.008 0.3459841,0.3459841 0 0 1 -0.00772,-0.48923 0.3459841,0.3459841 0 0 1 0.4892341,-0.008 0.3459841,0.3459841 0 0 1 0.00772,0.48924 L 7.3780904,285.7988 Z" />
    <path
       style="opacity:1;fill:#ce250b;fill-opacity:1;fill-rule:evenodd;stroke:none;stroke-width:0.01547598;stroke-linecap:round;stroke-linejoin:miter;stroke-miterlimit:4;stroke-dasharray:none;stroke-dashoffset:0;stroke-opacity:1"
       id="path4925-9"
       sodipodi:type="arc"
       sodipodi:cx="1.7211014"
       sodipodi:cy="285.60352"
       sodipodi:rx="0.090555601"
       sodipodi:ry="0.090555601"
       sodipodi:start="0.76962737"
       sodipodi:end="0.76962039"
       d="m 1.7861357,285.66653 a 0.0905556,0.0905556 0 0 1 -0.1280489,0.002 0.0905556,0.0905556 0 0 1 -0.00202,-0.12805 0.0905556,0.0905556 0 0 1 0.1280489,-0.002 0.0905556,0.0905556 0 0 1 0.00202,0.12805 l -0.065035,-0.063 z" />
  </g>
</svg>
