<?xml version="1.0" encoding="UTF-8" standalone="no"?>
<svg
   xmlns:dc="http://purl.org/dc/elements/1.1/"
   xmlns:cc="http://creativecommons.org/ns#"
   xmlns:rdf="http://www.w3.org/1999/02/22-rdf-syntax-ns#"
   xmlns:svg="http://www.w3.org/2000/svg"
   xmlns="http://www.w3.org/2000/svg"
   id="svg1667"
   version="1.1"
   viewBox="0 0 12.7 12.7"
   height="48"
   width="48">
  <defs
     id="defs1661" />
  <metadata
     id="metadata1664">
    <rdf:RDF>
      <cc:Work
         rdf:about="">
        <dc:format>image/svg+xml</dc:format>
        <dc:type
           rdf:resource="http://purl.org/dc/dcmitype/StillImage" />
        <dc:title></dc:title>
      </cc:Work>
    </rdf:RDF>
  </metadata>
  <g
     transform="translate(0,-284.3)"
     id="layer1">
    <g
       style="fill:#022b3a;fill-opacity:1;stroke:none;stroke-opacity:1"
       transform="matrix(0.02793943,0,0,0.02793943,-0.00622033,284.29378)"
       id="g1271">
      <g
         style="fill:#022b3a;fill-opacity:1;stroke:none;stroke-opacity:1"
         id="g1214">
        <path
           style="fill:#022b3a;fill-opacity:1;stroke:none;stroke-opacity:1"
           d="m 391.016,135.059 c -5.829,-49.336 -47.791,-87.605 -98.695,-87.605 -33.184,0 -62.556,16.272 -80.607,41.262 2.108,-0.081 4.223,-0.127 6.349,-0.127 74.519,0 138.462,50.218 157.487,120.164 21.304,4.704 40.866,15.374 56.667,31.173 1.403,1.403 2.764,2.836 4.085,4.297 C 447.852,232.648 455,216.682 455,199.04 c 0,-35.336 -28.648,-63.981 -63.984,-63.981 z"
           id="path1210" />
        <path
           style="fill:#022b3a;fill-opacity:1;stroke:none;stroke-opacity:1"
           d="M 350.359,236.02 C 342.545,169.887 286.297,118.589 218.063,118.589 149.829,118.589 93.581,169.887 85.767,236.02 38.402,236.02 0,274.417 0,321.783 c 0,47.366 38.397,85.763 85.763,85.763 h 264.601 c 47.366,0 85.763,-38.397 85.763,-85.763 0,-47.366 -38.402,-85.763 -85.768,-85.763 z"
           id="path1212" />
      </g>
      <g
         style="fill:#022b3a;fill-opacity:1;stroke:none;stroke-opacity:1"
         id="g1216" />
      <g
         style="fill:#022b3a;fill-opacity:1;stroke:none;stroke-opacity:1"
         id="g1218" />
      <g
         style="fill:#022b3a;fill-opacity:1;stroke:none;stroke-opacity:1"
         id="g1220" />
      <g
         style="fill:#022b3a;fill-opacity:1;stroke:none;stroke-opacity:1"
         id="g1222" />
      <g
         style="fill:#022b3a;fill-opacity:1;stroke:none;stroke-opacity:1"
         id="g1224" />
      <g
         style="fill:#022b3a;fill-opacity:1;stroke:none;stroke-opacity:1"
         id="g1226" />
      <g
         style="fill:#022b3a;fill-opacity:1;stroke:none;stroke-opacity:1"
         id="g1228" />
      <g
         style="fill:#022b3a;fill-opacity:1;stroke:none;stroke-opacity:1"
         id="g1230" />
      <g
         style="fill:#022b3a;fill-opacity:1;stroke:none;stroke-opacity:1"
         id="g1232" />
      <g
         style="fill:#022b3a;fill-opacity:1;stroke:none;stroke-opacity:1"
         id="g1234" />
      <g
         style="fill:#022b3a;fill-opacity:1;stroke:none;stroke-opacity:1"
         id="g1236" />
      <g
         style="fill:#022b3a;fill-opacity:1;stroke:none;stroke-opacity:1"
         id="g1238" />
      <g
         style="fill:#022b3a;fill-opacity:1;stroke:none;stroke-opacity:1"
         id="g1240" />
      <g
         style="fill:#022b3a;fill-opacity:1;stroke:none;stroke-opacity:1"
         id="g1242" />
      <g
         style="fill:#022b3a;fill-opacity:1;stroke:none;stroke-opacity:1"
         id="g1244" />
    </g>
  </g>
</svg>
