<?xml version="1.0" encoding="UTF-8" standalone="no"?>
<!-- Created with Inkscape (http://www.inkscape.org/) -->

<svg
   xmlns:dc="http://purl.org/dc/elements/1.1/"
   xmlns:cc="http://creativecommons.org/ns#"
   xmlns:rdf="http://www.w3.org/1999/02/22-rdf-syntax-ns#"
   xmlns:svg="http://www.w3.org/2000/svg"
   xmlns="http://www.w3.org/2000/svg"
   xmlns:sodipodi="http://sodipodi.sourceforge.net/DTD/sodipodi-0.dtd"
   xmlns:inkscape="http://www.inkscape.org/namespaces/inkscape"
   width="48"
   height="48"
   viewBox="0 0 12.7 12.7"
   version="1.1"
   id="svg1667"
   inkscape:version="0.92.2 (5c3e80d, 2017-08-06)"
   sodipodi:docname="sunset.svg">
  <defs
     id="defs1661" />
  <sodipodi:namedview
     id="base"
     pagecolor="#ffffff"
     bordercolor="#666666"
     borderopacity="1.0"
     inkscape:pageopacity="0.0"
     inkscape:pageshadow="2"
     inkscape:zoom="11.2"
     inkscape:cx="19.076505"
     inkscape:cy="14.169597"
     inkscape:document-units="mm"
     inkscape:current-layer="layer1"
     showgrid="false"
     units="px"
     inkscape:window-width="1920"
     inkscape:window-height="1017"
     inkscape:window-x="-8"
     inkscape:window-y="-8"
     inkscape:window-maximized="1" />
  <metadata
     id="metadata1664">
    <rdf:RDF>
      <cc:Work
         rdf:about="">
        <dc:format>image/svg+xml</dc:format>
        <dc:type
           rdf:resource="http://purl.org/dc/dcmitype/StillImage" />
        <dc:title></dc:title>
      </cc:Work>
    </rdf:RDF>
  </metadata>
  <g
     inkscape:label="Layer 1"
     inkscape:groupmode="layer"
     id="layer1"
     transform="translate(0,-284.3)">
    <g
       id="g1165"
       style="fill:#022b3a;fill-opacity:1;stroke:none;stroke-opacity:1"
       transform="matrix(0.27923033,0,0,0.27923033,0.04497915,284.34498)">
      <g
         id="g1091"
         style="fill:#022b3a;fill-opacity:1;stroke:none;stroke-opacity:1">
        <g
           id="g1089"
           style="fill:#022b3a;fill-opacity:1;stroke:none;stroke-opacity:1">
          <path
             id="path1053"
             d="m 22.58,11.269 c -6.237,0 -11.311,5.075 -11.311,11.312 0,6.237 5.074,11.312 11.311,11.312 6.236,0 11.311,-5.074 11.311,-11.312 0,-6.238 -5.075,-11.312 -11.311,-11.312 z"
             inkscape:connector-curvature="0"
             style="fill:#022b3a;fill-opacity:1;stroke:none;stroke-opacity:1" />
          <g
             id="g1087"
             style="fill:#022b3a;fill-opacity:1;stroke:none;stroke-opacity:1">
            <g
               id="g1057"
               style="fill:#022b3a;fill-opacity:1;stroke:none;stroke-opacity:1">
              <path
                 id="path1055"
                 d="m 22.58,7.944 c -1.219,0 -2.207,-0.988 -2.207,-2.206 V 2.207 C 20.373,0.988 21.361,0 22.58,0 c 1.219,0 2.207,0.988 2.207,2.207 v 3.531 c 0,1.218 -0.989,2.206 -2.207,2.206 z"
                 inkscape:connector-curvature="0"
                 style="fill:#022b3a;fill-opacity:1;stroke:none;stroke-opacity:1" />
            </g>
            <g
               id="g1061"
               style="fill:#022b3a;fill-opacity:1;stroke:none;stroke-opacity:1">
              <path
                 id="path1059"
                 d="m 22.58,37.215 c -1.219,0 -2.207,0.988 -2.207,2.207 v 3.53 c 0,1.22 0.988,2.208 2.207,2.208 1.219,0 2.207,-0.988 2.207,-2.208 v -3.53 c 0,-1.219 -0.989,-2.207 -2.207,-2.207 z"
                 inkscape:connector-curvature="0"
                 style="fill:#022b3a;fill-opacity:1;stroke:none;stroke-opacity:1" />
            </g>
            <g
               id="g1065"
               style="fill:#022b3a;fill-opacity:1;stroke:none;stroke-opacity:1">
              <path
                 id="path1063"
                 d="m 32.928,12.231 c -0.861,-0.862 -0.861,-2.259 0,-3.121 l 2.497,-2.497 c 0.861,-0.861 2.259,-0.861 3.121,0 0.862,0.862 0.862,2.26 0,3.121 l -2.497,2.497 c -0.861,0.862 -2.258,0.862 -3.121,0 z"
                 inkscape:connector-curvature="0"
                 style="fill:#022b3a;fill-opacity:1;stroke:none;stroke-opacity:1" />
            </g>
            <g
               id="g1069"
               style="fill:#022b3a;fill-opacity:1;stroke:none;stroke-opacity:1">
              <path
                 id="path1067"
                 d="m 12.231,32.93 c -0.862,-0.863 -2.259,-0.863 -3.121,0 l -2.497,2.496 c -0.861,0.861 -0.862,2.26 0,3.121 0.862,0.861 2.26,0.861 3.121,0 l 2.497,-2.498 c 0.862,-0.861 0.862,-2.259 0,-3.119 z"
                 inkscape:connector-curvature="0"
                 style="fill:#022b3a;fill-opacity:1;stroke:none;stroke-opacity:1" />
            </g>
            <g
               id="g1073"
               style="fill:#022b3a;fill-opacity:1;stroke:none;stroke-opacity:1">
              <path
                 id="path1071"
                 d="m 37.215,22.58 c 0,-1.219 0.988,-2.207 2.207,-2.207 h 3.531 c 1.219,0 2.207,0.988 2.207,2.207 0,1.219 -0.988,2.206 -2.207,2.206 h -3.531 c -1.219,0 -2.207,-0.987 -2.207,-2.206 z"
                 inkscape:connector-curvature="0"
                 style="fill:#022b3a;fill-opacity:1;stroke:none;stroke-opacity:1" />
            </g>
            <g
               id="g1077"
               style="fill:#022b3a;fill-opacity:1;stroke:none;stroke-opacity:1">
              <path
                 id="path1075"
                 d="m 7.944,22.58 c 0,-1.219 -0.988,-2.207 -2.207,-2.207 H 2.207 C 0.988,20.373 0,21.361 0,22.58 c 0,1.219 0.988,2.206 2.207,2.206 h 3.531 c 1.218,0 2.206,-0.987 2.206,-2.206 z"
                 inkscape:connector-curvature="0"
                 style="fill:#022b3a;fill-opacity:1;stroke:none;stroke-opacity:1" />
            </g>
            <g
               id="g1081"
               style="fill:#022b3a;fill-opacity:1;stroke:none;stroke-opacity:1">
              <path
                 id="path1079"
                 d="m 32.928,32.93 c 0.862,-0.861 2.26,-0.861 3.121,0 l 2.497,2.497 c 0.862,0.86 0.862,2.259 0,3.12 -0.862,0.861 -2.259,0.861 -3.121,0 L 32.928,36.05 c -0.862,-0.862 -0.862,-2.259 0,-3.12 z"
                 inkscape:connector-curvature="0"
                 style="fill:#022b3a;fill-opacity:1;stroke:none;stroke-opacity:1" />
            </g>
            <g
               id="g1085"
               style="fill:#022b3a;fill-opacity:1;stroke:none;stroke-opacity:1">
              <path
                 id="path1083"
                 d="m 12.231,12.231 c 0.862,-0.862 0.862,-2.259 0,-3.121 L 9.734,6.614 c -0.862,-0.862 -2.259,-0.862 -3.121,0 -0.862,0.861 -0.862,2.259 0,3.12 l 2.497,2.497 c 0.862,0.863 2.259,0.863 3.121,0 z"
                 inkscape:connector-curvature="0"
                 style="fill:#022b3a;fill-opacity:1;stroke:none;stroke-opacity:1" />
            </g>
          </g>
        </g>
      </g>
      <g
         id="g1093"
         style="fill:#022b3a;fill-opacity:1;stroke:none;stroke-opacity:1" />
      <g
         id="g1095"
         style="fill:#022b3a;fill-opacity:1;stroke:none;stroke-opacity:1" />
      <g
         id="g1097"
         style="fill:#022b3a;fill-opacity:1;stroke:none;stroke-opacity:1" />
      <g
         id="g1099"
         style="fill:#022b3a;fill-opacity:1;stroke:none;stroke-opacity:1" />
      <g
         id="g1101"
         style="fill:#022b3a;fill-opacity:1;stroke:none;stroke-opacity:1" />
      <g
         id="g1103"
         style="fill:#022b3a;fill-opacity:1;stroke:none;stroke-opacity:1" />
      <g
         id="g1105"
         style="fill:#022b3a;fill-opacity:1;stroke:none;stroke-opacity:1" />
      <g
         id="g1107"
         style="fill:#022b3a;fill-opacity:1;stroke:none;stroke-opacity:1" />
      <g
         id="g1109"
         style="fill:#022b3a;fill-opacity:1;stroke:none;stroke-opacity:1" />
      <g
         id="g1111"
         style="fill:#022b3a;fill-opacity:1;stroke:none;stroke-opacity:1" />
      <g
         id="g1113"
         style="fill:#022b3a;fill-opacity:1;stroke:none;stroke-opacity:1" />
      <g
         id="g1115"
         style="fill:#022b3a;fill-opacity:1;stroke:none;stroke-opacity:1" />
      <g
         id="g1117"
         style="fill:#022b3a;fill-opacity:1;stroke:none;stroke-opacity:1" />
      <g
         id="g1119"
         style="fill:#022b3a;fill-opacity:1;stroke:none;stroke-opacity:1" />
      <g
         id="g1121"
         style="fill:#022b3a;fill-opacity:1;stroke:none;stroke-opacity:1" />
    </g>
  </g>
</svg>
