<?xml version="1.0" encoding="UTF-8" standalone="no"?>
<svg
   xmlns:dc="http://purl.org/dc/elements/1.1/"
   xmlns:cc="http://creativecommons.org/ns#"
   xmlns:rdf="http://www.w3.org/1999/02/22-rdf-syntax-ns#"
   xmlns:svg="http://www.w3.org/2000/svg"
   xmlns="http://www.w3.org/2000/svg"
   id="svg1667"
   version="1.1"
   viewBox="0 0 12.7 12.7"
   height="48"
   width="48">
  <defs
     id="defs1661" />
  <metadata
     id="metadata1664">
    <rdf:RDF>
      <cc:Work
         rdf:about="">
        <dc:format>image/svg+xml</dc:format>
        <dc:type
           rdf:resource="http://purl.org/dc/dcmitype/StillImage" />
        <dc:title></dc:title>
      </cc:Work>
    </rdf:RDF>
  </metadata>
  <g
     transform="translate(0,-284.3)"
     id="layer1">
    <g
       style="fill:#022b3a;fill-opacity:1;stroke:none;stroke-opacity:1"
       transform="matrix(0.04137341,0,0,0.04137341,0.11080703,284.41079)"
       id="g1372">
      <g
         style="fill:#022b3a;fill-opacity:1;stroke:none;stroke-opacity:1"
         id="g1316">
        <path
           style="fill:#022b3a;fill-opacity:1;stroke:none;stroke-opacity:1"
           d="M 236.896,38.375 V 51.229 H 187.088 V 38.375 Z m -20.887,28.014 h -28.921 v 12.854 h 28.921 z m -28.921,40.868 h 49.808 V 94.404 h -49.808 z m 28.921,15.168 h -28.921 v 12.854 h 28.921 z m -28.921,40.868 h 49.808 v -12.854 h -49.808 z m 7.764,73.24 c 0,35.881 -29.191,65.072 -65.072,65.072 -35.881,0 -65.072,-29.191 -65.072,-65.072 0,-23.252 12.211,-44.384 32.134,-56.074 V 32.938 C 96.843,14.775 111.618,0 129.78,0 c 18.162,0 32.938,14.775 32.938,32.938 V 180.46 c 19.923,11.677 32.134,32.815 32.134,56.073 z m -12.854,0 c 0,-19.73 -10.964,-37.565 -28.619,-46.53 l -3.515,-1.787 V 32.944 c 0,-11.08 -9.01,-20.084 -20.084,-20.084 -11.073,0 -20.084,9.004 -20.084,20.084 v 155.272 l -3.515,1.787 c -17.655,8.972 -28.619,26.806 -28.619,46.53 0,28.792 23.426,52.218 52.218,52.218 28.792,0 52.218,-23.426 52.218,-52.218 z m -10.707,0 c 0,22.886 -18.619,41.505 -41.511,41.505 -22.886,0 -41.505,-18.619 -41.505,-41.505 0,-18.76 12.674,-35.232 30.823,-40.058 l 2.384,-0.636 v -79.275 h 16.601 v 79.269 l 2.384,0.643 c 18.157,4.825 30.824,21.304 30.824,40.057 z m -39.454,-27.667 c -0.99,-4.396 -5.411,-7.288 -9.917,-6.26 -15.733,3.56 -26.723,17.32 -26.723,33.465 0,4.569 3.721,8.291 8.291,8.291 4.57,0 8.291,-3.721 8.291,-8.291 0,-8.207 5.797,-15.482 13.798,-17.288 4.447,-1.023 7.262,-5.47 6.26,-9.917 z"
           id="path1314" />
      </g>
      <g
         style="fill:#022b3a;fill-opacity:1;stroke:none;stroke-opacity:1"
         id="g1318" />
      <g
         style="fill:#022b3a;fill-opacity:1;stroke:none;stroke-opacity:1"
         id="g1320" />
      <g
         style="fill:#022b3a;fill-opacity:1;stroke:none;stroke-opacity:1"
         id="g1322" />
      <g
         style="fill:#022b3a;fill-opacity:1;stroke:none;stroke-opacity:1"
         id="g1324" />
      <g
         style="fill:#022b3a;fill-opacity:1;stroke:none;stroke-opacity:1"
         id="g1326" />
      <g
         style="fill:#022b3a;fill-opacity:1;stroke:none;stroke-opacity:1"
         id="g1328" />
      <g
         style="fill:#022b3a;fill-opacity:1;stroke:none;stroke-opacity:1"
         id="g1330" />
      <g
         style="fill:#022b3a;fill-opacity:1;stroke:none;stroke-opacity:1"
         id="g1332" />
      <g
         style="fill:#022b3a;fill-opacity:1;stroke:none;stroke-opacity:1"
         id="g1334" />
      <g
         style="fill:#022b3a;fill-opacity:1;stroke:none;stroke-opacity:1"
         id="g1336" />
      <g
         style="fill:#022b3a;fill-opacity:1;stroke:none;stroke-opacity:1"
         id="g1338" />
      <g
         style="fill:#022b3a;fill-opacity:1;stroke:none;stroke-opacity:1"
         id="g1340" />
      <g
         style="fill:#022b3a;fill-opacity:1;stroke:none;stroke-opacity:1"
         id="g1342" />
      <g
         style="fill:#022b3a;fill-opacity:1;stroke:none;stroke-opacity:1"
         id="g1344" />
      <g
         style="fill:#022b3a;fill-opacity:1;stroke:none;stroke-opacity:1"
         id="g1346" />
    </g>
  </g>
</svg>
