<?xml version="1.0" encoding="UTF-8" standalone="no"?>
<svg
   xmlns:dc="http://purl.org/dc/elements/1.1/"
   xmlns:cc="http://creativecommons.org/ns#"
   xmlns:rdf="http://www.w3.org/1999/02/22-rdf-syntax-ns#"
   xmlns:svg="http://www.w3.org/2000/svg"
   xmlns="http://www.w3.org/2000/svg"
   xmlns:xlink="http://www.w3.org/1999/xlink"
   id="svg8"
   version="1.1"
   viewBox="0 0 12.7 12.7"
   height="48"
   width="48">
  <defs
     id="defs2">
    <linearGradient
       id="linearGradient1342">
      <stop
         id="stop1338"
         offset="0"
         style="stop-color:#ffff00;stop-opacity:1;" />
      <stop
         id="stop1340"
         offset="1"
         style="stop-color:#ffff00;stop-opacity:0;" />
    </linearGradient>
    <linearGradient
       gradientTransform="matrix(-0.82235793,0,0,0.82235793,47.794232,94.677804)"
       gradientUnits="userSpaceOnUse"
       y2="233.64017"
       x2="58.807648"
       y1="233.95207"
       x1="35.960217"
       id="linearGradient1344"
       xlink:href="#linearGradient1342" />
  </defs>
  <metadata
     id="metadata5">
    <rdf:RDF>
      <cc:Work
         rdf:about="">
        <dc:format>image/svg+xml</dc:format>
        <dc:type
           rdf:resource="http://purl.org/dc/dcmitype/StillImage" />
        <dc:title></dc:title>
      </cc:Work>
    </rdf:RDF>
  </metadata>
  <g
     transform="translate(0,-284.3)"
     id="layer1">
    <g
       transform="translate(15.723809,-13.210266)"
       id="layer1-1">
      <g
         transform="matrix(0.96438575,0,0,0.96438575,0.31260302,10.159525)"
         id="g1956">
        <g
           id="g1334"
           transform="matrix(0.82235793,0,0,0.82235793,-34.540954,94.863976)">
          <path
             style="fill:#556080;stroke-width:0.85698992"
             d="m 36.855398,255.98282 c -0.735297,-0.48337 -0.735297,-1.52458 0,-2.00708 v 0 c 1.043813,-0.68558 0.512477,-2.25387 -0.752439,-2.21958 -0.89127,0.0236 -1.528868,-0.81846 -1.230637,-1.62399 0.424211,-1.14326 -0.966685,-2.11166 -1.968507,-1.37207 -0.706159,0.52191 -1.738833,0.19954 -1.990786,-0.62044 -0.357361,-1.16381 -2.076488,-1.16381 -2.433852,0 -0.251976,0.82014 -1.283771,1.14152 -1.990786,0.62044 -1.002682,-0.74045 -2.39272,0.2286 -1.968507,1.37207 0.29911,0.80553 -0.339372,1.64798 -1.230641,1.62399 -1.264916,-0.0314 -1.795391,1.534 -0.752434,2.21958 v 0 c 0.735296,0.48336 0.735296,1.52462 0,2.00708 -1.043814,0.68558 -0.512482,2.25388 0.752434,2.21962 0.891269,-0.0236 1.528872,0.81839 1.230641,1.62396 -0.424213,1.14325 0.966682,2.11164 1.968507,1.37206 0.706159,-0.52191 1.738834,-0.19994 1.990786,0.62045 0.357361,1.1638 2.076484,1.1638 2.433852,0 0.251976,-0.82016 1.283772,-1.14153 1.990786,-0.62045 1.002677,0.73958 2.392718,-0.22861 1.968507,-1.37206 -0.29911,-0.80557 0.339372,-1.64796 1.230637,-1.62396 1.264916,0.0314 1.796252,-1.53404 0.752439,-2.21962 z m -7.158436,1.5666 c -1.420038,0 -2.570973,-1.15095 -2.570973,-2.57097 0,-1.42005 1.150935,-2.57097 2.570973,-2.57097 1.420033,0 2.570968,1.15092 2.570968,2.57097 0,1.42002 -1.150935,2.57097 -2.570968,2.57097 z"
             id="path946-9" />
        </g>
      </g>
    </g>
  </g>
</svg>
